<svg width="161" height="161" viewBox="0 0 161 161" fill="none" xmlns="http://www.w3.org/2000/svg">
<g clip-path="url(#clip0_1_2)">
<path fill-rule="evenodd" clip-rule="evenodd" d="M120.872 22C122.84 22 124.653 23.0507 125.603 24.7413C130.403 33.248 144.979 59.1147 149.651 67.4133C150.051 68.112 150.28 68.8853 150.323 69.6693C150.387 70.6667 150.168 71.68 149.651 72.5867C144.979 80.8853 130.403 106.752 125.603 115.253C124.653 116.949 122.84 118 120.872 118H73.1333C71.1653 118 69.352 116.949 68.4027 115.253C63.608 106.752 49.0213 80.8853 44.3493 72.5867C43.896 71.7813 43.6667 70.8907 43.6667 70C43.6667 69.1093 43.896 68.2187 44.3493 67.4133C49.0213 59.1147 63.608 33.248 68.4027 24.7413C69.352 23.0507 71.1653 22 73.1333 22H120.872ZM74.6213 30L52.072 70L74.6213 110H119.384L141.928 70L119.384 30H74.6213Z" fill="#0088CC"/>
<g clip-path="url(#clip1_1_2)">
<rect x="28.986" y="74.3622" width="50" height="34.6136" transform="rotate(-3.05945 28.986 74.3622)" fill="white"/>
<path fill-rule="evenodd" clip-rule="evenodd" d="M59.8696 129.228C60.7505 130.313 62.1116 130.903 63.5071 130.778C64.9036 130.65 66.1327 129.832 66.7777 128.604C73.6364 115.502 90.6845 82.2546 96.9253 70.3376C97.397 69.4398 97.3334 68.3519 96.7614 67.5043C96.1893 66.6566 95.2005 66.1816 94.1764 66.2667C78.3946 67.5616 29.7298 71.7727 9.86477 73.4006C8.60388 73.5041 7.55324 74.3945 7.25411 75.609C6.95745 76.8279 7.47646 78.102 8.54816 78.7805C15.9465 83.4526 25.6046 89.7754 25.6046 89.7754C25.6046 89.7754 26.3754 106.117 26.8308 114.445C26.8878 115.49 27.425 116.45 28.3382 116.985C29.249 117.515 30.3749 117.539 31.3018 117.052C36.5442 114.296 44.6494 110.034 44.6494 110.034C44.6494 110.034 54.3353 122.374 59.8696 129.228V129.228ZM30.591 89.1322L31.0364 109.623L35.6532 98.0165C35.6532 98.0165 63.3592 84.246 79.153 76.3974C79.6149 76.1661 79.8224 75.6211 79.6251 75.143C79.4312 74.6659 78.8976 74.4174 78.4037 74.5661C61.1746 79.8143 30.591 89.1322 30.591 89.1322Z" fill="#0088CC"/>
</g>
</g>
<defs>
<clipPath id="clip0_1_2">
<rect width="161" height="161" fill="white"/>
</clipPath>
<clipPath id="clip1_1_2">
<rect width="85" height="85" fill="white" transform="translate(18.8878 34) rotate(15.6207)"/>
</clipPath>
</defs>
</svg>
